<mxfile host="app.diagrams.net" modified="2024-05-09T20:32:20.567Z" agent="Mozilla/5.0 (X11; Linux x86_64) AppleWebKit/537.36 (KHTML, like Gecko) Chrome/113.0.0.0 Safari/537.36" etag="F8yyBY3j5jP-9VlZp5hN" version="24.3.1" type="google">
  <diagram name="PÃ¡gina-1" id="GZJD7JNDdjFw0CkEMVPQ">
    <mxGraphModel grid="1" page="1" gridSize="10" guides="1" tooltips="1" connect="1" arrows="1" fold="1" pageScale="1" pageWidth="827" pageHeight="1169" math="0" shadow="0">
      <root>
        <mxCell id="0" />
        <mxCell id="1" parent="0" />
        <mxCell id="idra2ErmDJh0C3l0mQgQ-2" style="edgeStyle=orthogonalEdgeStyle;rounded=0;orthogonalLoop=1;jettySize=auto;html=1;" edge="1" parent="1" source="idra2ErmDJh0C3l0mQgQ-1" target="idra2ErmDJh0C3l0mQgQ-3">
          <mxGeometry relative="1" as="geometry">
            <mxPoint x="120" y="140" as="targetPoint" />
          </mxGeometry>
        </mxCell>
        <mxCell id="idra2ErmDJh0C3l0mQgQ-1" value="" style="ellipse;whiteSpace=wrap;html=1;aspect=fixed;strokeColor=#e01b24;" vertex="1" parent="1">
          <mxGeometry x="100" y="20" width="40" height="40" as="geometry" />
        </mxCell>
        <mxCell id="idra2ErmDJh0C3l0mQgQ-3" value="Nuevo " style="rounded=0;whiteSpace=wrap;html=1;" vertex="1" parent="1">
          <mxGeometry x="60" y="110" width="120" height="60" as="geometry" />
        </mxCell>
        <mxCell id="idra2ErmDJh0C3l0mQgQ-7" style="edgeStyle=orthogonalEdgeStyle;rounded=0;orthogonalLoop=1;jettySize=auto;html=1;exitX=1;exitY=0.5;exitDx=0;exitDy=0;entryX=0;entryY=0.5;entryDx=0;entryDy=0;" edge="1" parent="1" source="idra2ErmDJh0C3l0mQgQ-5" target="idra2ErmDJh0C3l0mQgQ-6">
          <mxGeometry relative="1" as="geometry">
            <mxPoint x="590" y="140" as="targetPoint" />
          </mxGeometry>
        </mxCell>
        <mxCell id="idra2ErmDJh0C3l0mQgQ-5" value="Enviado" style="rounded=0;whiteSpace=wrap;html=1;" vertex="1" parent="1">
          <mxGeometry x="330" y="110" width="120" height="60" as="geometry" />
        </mxCell>
        <mxCell id="idra2ErmDJh0C3l0mQgQ-11" style="edgeStyle=orthogonalEdgeStyle;rounded=0;orthogonalLoop=1;jettySize=auto;html=1;entryX=0;entryY=0.5;entryDx=0;entryDy=0;" edge="1" parent="1" target="idra2ErmDJh0C3l0mQgQ-5">
          <mxGeometry relative="1" as="geometry">
            <mxPoint x="180" y="140" as="sourcePoint" />
            <mxPoint x="310" y="140" as="targetPoint" />
          </mxGeometry>
        </mxCell>
        <mxCell id="idra2ErmDJh0C3l0mQgQ-6" value="Recibido" style="rounded=0;whiteSpace=wrap;html=1;" vertex="1" parent="1">
          <mxGeometry x="597" y="110" width="120" height="60" as="geometry" />
        </mxCell>
        <mxCell id="idra2ErmDJh0C3l0mQgQ-17" style="edgeStyle=orthogonalEdgeStyle;rounded=0;orthogonalLoop=1;jettySize=auto;html=1;exitX=0.5;exitY=1;exitDx=0;exitDy=0;entryX=0.5;entryY=0;entryDx=0;entryDy=0;" edge="1" parent="1" source="idra2ErmDJh0C3l0mQgQ-9" target="idra2ErmDJh0C3l0mQgQ-10">
          <mxGeometry relative="1" as="geometry" />
        </mxCell>
        <mxCell id="idra2ErmDJh0C3l0mQgQ-9" value="Visualizado" style="rounded=0;whiteSpace=wrap;html=1;" vertex="1" parent="1">
          <mxGeometry x="610" y="280" width="120" height="60" as="geometry" />
        </mxCell>
        <mxCell id="idra2ErmDJh0C3l0mQgQ-10" value="" style="ellipse;whiteSpace=wrap;html=1;aspect=fixed;strokeColor=#e01b24;" vertex="1" parent="1">
          <mxGeometry x="650" y="440" width="40" height="40" as="geometry" />
        </mxCell>
        <mxCell id="idra2ErmDJh0C3l0mQgQ-18" value="Visualizo_mensaje()" style="text;html=1;align=center;verticalAlign=middle;resizable=0;points=[];autosize=1;strokeColor=none;fillColor=none;" vertex="1" parent="1">
          <mxGeometry x="535" y="200" width="130" height="30" as="geometry" />
        </mxCell>
        <mxCell id="idra2ErmDJh0C3l0mQgQ-21" value="confirmar_recepcion()" style="text;html=1;align=center;verticalAlign=middle;resizable=0;points=[];autosize=1;strokeColor=none;fillColor=none;" vertex="1" parent="1">
          <mxGeometry x="457" y="110" width="140" height="30" as="geometry" />
        </mxCell>
        <mxCell id="idra2ErmDJh0C3l0mQgQ-22" value="Nuevo_Mensaje()" style="text;html=1;align=center;verticalAlign=middle;resizable=0;points=[];autosize=1;strokeColor=none;fillColor=none;" vertex="1" parent="1">
          <mxGeometry x="190" y="110" width="130" height="30" as="geometry" />
        </mxCell>
        <mxCell id="YxGZ4Xi673QWHlERwBLD-1" style="edgeStyle=orthogonalEdgeStyle;rounded=0;orthogonalLoop=1;jettySize=auto;html=1;exitX=0.5;exitY=1;exitDx=0;exitDy=0;entryX=0.391;entryY=-0.007;entryDx=0;entryDy=0;entryPerimeter=0;" edge="1" parent="1" source="idra2ErmDJh0C3l0mQgQ-6" target="idra2ErmDJh0C3l0mQgQ-9">
          <mxGeometry relative="1" as="geometry" />
        </mxCell>
      </root>
    </mxGraphModel>
  </diagram>
</mxfile>
